<mxfile host="app.diagrams.net" modified="2022-05-02T14:14:00.963Z" agent="5.0 (Macintosh; Intel Mac OS X 10_15_7) AppleWebKit/605.1.15 (KHTML, like Gecko) Version/15.4 Safari/605.1.15" etag="N7Xyt3pvtmUVUF9zIvQj" version="17.5.0" type="github">
  <diagram id="5vSy_viqhQwmgGxNUU4j" name="第 1 页">
    <mxGraphModel dx="2146" dy="1473" grid="1" gridSize="10" guides="1" tooltips="1" connect="1" arrows="1" fold="1" page="0" pageScale="1" pageWidth="827" pageHeight="1169" background="none" math="0" shadow="0">
      <root>
        <mxCell id="0" />
        <mxCell id="1" parent="0" />
        <mxCell id="KlACzWgXvU63oRVZ-FLX-5" value="malloc 0x80" style="rounded=0;whiteSpace=wrap;html=1;fillColor=#ffe6cc;strokeColor=#d79b00;" vertex="1" parent="1">
          <mxGeometry x="-840" y="-520" width="170" height="130" as="geometry" />
        </mxCell>
        <mxCell id="KlACzWgXvU63oRVZ-FLX-6" value="name" style="rounded=0;whiteSpace=wrap;html=1;fillColor=#dae8fc;strokeColor=#6c8ebf;" vertex="1" parent="1">
          <mxGeometry x="-840" y="-390" width="170" height="130" as="geometry" />
        </mxCell>
        <mxCell id="KlACzWgXvU63oRVZ-FLX-8" style="edgeStyle=orthogonalEdgeStyle;rounded=0;orthogonalLoop=1;jettySize=auto;html=1;exitX=1;exitY=0.5;exitDx=0;exitDy=0;entryX=1;entryY=0;entryDx=0;entryDy=0;" edge="1" parent="1" source="KlACzWgXvU63oRVZ-FLX-7" target="KlACzWgXvU63oRVZ-FLX-5">
          <mxGeometry relative="1" as="geometry">
            <Array as="points">
              <mxPoint x="-650" y="-375" />
              <mxPoint x="-650" y="-520" />
            </Array>
          </mxGeometry>
        </mxCell>
        <mxCell id="KlACzWgXvU63oRVZ-FLX-7" value="text ptr" style="rounded=0;whiteSpace=wrap;html=1;fillColor=#dae8fc;strokeColor=#6c8ebf;" vertex="1" parent="1">
          <mxGeometry x="-840" y="-390" width="170" height="30" as="geometry" />
        </mxCell>
        <mxCell id="KlACzWgXvU63oRVZ-FLX-9" value="malloc 0x80" style="rounded=0;whiteSpace=wrap;html=1;fillColor=#ffe6cc;strokeColor=#d79b00;" vertex="1" parent="1">
          <mxGeometry x="-840" y="-260" width="170" height="130" as="geometry" />
        </mxCell>
        <mxCell id="KlACzWgXvU63oRVZ-FLX-10" value="name" style="rounded=0;whiteSpace=wrap;html=1;fillColor=#dae8fc;strokeColor=#6c8ebf;" vertex="1" parent="1">
          <mxGeometry x="-840" y="-130" width="170" height="130" as="geometry" />
        </mxCell>
        <mxCell id="KlACzWgXvU63oRVZ-FLX-11" style="edgeStyle=orthogonalEdgeStyle;rounded=0;orthogonalLoop=1;jettySize=auto;html=1;exitX=1;exitY=0.5;exitDx=0;exitDy=0;entryX=1;entryY=0;entryDx=0;entryDy=0;" edge="1" parent="1" source="KlACzWgXvU63oRVZ-FLX-12" target="KlACzWgXvU63oRVZ-FLX-9">
          <mxGeometry relative="1" as="geometry">
            <Array as="points">
              <mxPoint x="-650" y="-115" />
              <mxPoint x="-650" y="-260" />
            </Array>
          </mxGeometry>
        </mxCell>
        <mxCell id="KlACzWgXvU63oRVZ-FLX-12" value="text ptr" style="rounded=0;whiteSpace=wrap;html=1;fillColor=#dae8fc;strokeColor=#6c8ebf;" vertex="1" parent="1">
          <mxGeometry x="-840" y="-130" width="170" height="30" as="geometry" />
        </mxCell>
      </root>
    </mxGraphModel>
  </diagram>
</mxfile>
